<mxfile host="Electron" modified="2023-10-15T07:35:50.220Z" agent="Mozilla/5.0 (Windows NT 10.0; Win64; x64) AppleWebKit/537.36 (KHTML, like Gecko) draw.io/22.0.2 Chrome/114.0.5735.289 Electron/25.8.4 Safari/537.36" etag="CbuKkSmk4875OPRLbw0i" version="22.0.2" type="device">
  <diagram name="페이지-1" id="hGV9PO8-bn0LAC1_04bD">
    <mxGraphModel dx="1070" dy="694" grid="1" gridSize="10" guides="1" tooltips="1" connect="1" arrows="1" fold="1" page="1" pageScale="1" pageWidth="1169" pageHeight="827" math="0" shadow="0">
      <root>
        <mxCell id="0" />
        <mxCell id="1" parent="0" />
        <mxCell id="RDk7HfD7q96trYIxuWp2-6" value="" style="rounded=0;whiteSpace=wrap;html=1;fillColor=#006666;" parent="1" vertex="1">
          <mxGeometry x="165" y="64" width="85" height="70" as="geometry" />
        </mxCell>
        <mxCell id="QEhOT1YJAH4faydGy3Kk-2" value="" style="verticalLabelPosition=bottom;verticalAlign=top;html=1;shadow=0;dashed=0;strokeWidth=1;shape=mxgraph.android.phone2;strokeColor=#c0c0c0;" parent="1" vertex="1">
          <mxGeometry x="50" y="190" width="100" height="190" as="geometry" />
        </mxCell>
        <mxCell id="QEhOT1YJAH4faydGy3Kk-3" value="&lt;span style=&quot;background-color: rgb(102, 0, 204);&quot;&gt;&lt;font style=&quot;font-size: 10px;&quot;&gt;로그인&lt;/font&gt;&lt;/span&gt;" style="text;html=1;align=center;verticalAlign=middle;resizable=0;points=[];autosize=1;strokeColor=none;fillColor=none;" parent="1" vertex="1">
          <mxGeometry x="75" y="300" width="50" height="30" as="geometry" />
        </mxCell>
        <mxCell id="QEhOT1YJAH4faydGy3Kk-4" value="&lt;span style=&quot;font-size: 10px;&quot;&gt;&lt;u&gt;PW: *****&lt;/u&gt;&lt;/span&gt;" style="text;html=1;align=center;verticalAlign=middle;resizable=0;points=[];autosize=1;strokeColor=none;fillColor=none;" parent="1" vertex="1">
          <mxGeometry x="65" y="260" width="60" height="30" as="geometry" />
        </mxCell>
        <mxCell id="QEhOT1YJAH4faydGy3Kk-5" value="" style="verticalLabelPosition=bottom;verticalAlign=top;html=1;shadow=0;dashed=0;strokeWidth=1;shape=mxgraph.android.phone2;strokeColor=#c0c0c0;" parent="1" vertex="1">
          <mxGeometry x="220" y="190" width="100" height="190" as="geometry" />
        </mxCell>
        <mxCell id="QEhOT1YJAH4faydGy3Kk-6" value="&lt;font style=&quot;font-size: 10px;&quot;&gt;내 ID: Test1&lt;/font&gt;" style="text;html=1;align=center;verticalAlign=middle;resizable=0;points=[];autosize=1;strokeColor=none;fillColor=none;" parent="1" vertex="1">
          <mxGeometry x="165" y="63" width="80" height="30" as="geometry" />
        </mxCell>
        <mxCell id="QEhOT1YJAH4faydGy3Kk-7" value="&lt;span style=&quot;background-color: rgb(102, 0, 204);&quot;&gt;&lt;font style=&quot;font-size: 10px;&quot;&gt;그룹 만들기&lt;/font&gt;&lt;/span&gt;" style="text;html=1;align=center;verticalAlign=middle;resizable=0;points=[];autosize=1;strokeColor=none;fillColor=none;" parent="1" vertex="1">
          <mxGeometry x="230" y="220" width="80" height="30" as="geometry" />
        </mxCell>
        <mxCell id="QEhOT1YJAH4faydGy3Kk-11" value="" style="shape=image;verticalLabelPosition=bottom;labelBackgroundColor=default;verticalAlign=top;aspect=fixed;imageAspect=0;image=data:image/png,iVBORw0KGgoAAAANSUhEUgAAAG8AAABzCAYAAACW0VyAAAAAAXNSR0IArs4c6QAAAARnQU1BAACxjwv8YQUAAAAJcEhZcwAADsMAAA7DAcdvqGQAACY1SURBVHhe7d1nrG1F2QfwRbWABQvSFEQQK4qgCCoiKCJFwYYtRmMsMTFADBr5wpvwgQ/wgaDGaAJBsOC1YwEF7NhBsffesQMCNl5/4/3fjONae6+9zj7CSc6TTPbea82aeer/eWZmnXs3+8c//nFTt05rkjbf+LlOa5DWjbeGad14a5jWjbeGad14a5jWjbeGaU0Yb7PNNtv4bZ1qGr3Ou+mmm0r75z//WT5XixhK22KLLTZe+ffcf//73zf+Wh3KnGMd5V9626ST1SK8bL755qX10WjjUd6NN97YXX/99d3f/va3VWOaAm9729t222yzTflu3r/85S/dNddcs7HH6tDWW2/d3e52tyuf8wzIga+77rrCFyOuBuFhq6226rbddtvCU58BRxkPs7///e+7q666qvvABz7Q/fa3v12VSKCIO97xjt0jH/nI7klPelJR5s9//vPuYx/7WPf2t7+9u81tbjPohSshitptt926I488stt7772L45inz0Fd+/Of/9y97W1v6z7/+c8Xp6pRYlm05ZZbdjvuuGN39NFHd/e///27O9zhDv8l+yjjUeqvfvWrosRXv/rV5bvoWzZRzPbbb1+UeOKJJ3Z3vvOdu29961vdhg0bute85jXFE8fC2iJkzAc84AHdS1/60u7ggw8uTsMgfcaji6uvvro7/fTTuw9/+MPFkVeDJ9F2j3vco3vZy17WPepRj+rucpe7/JeTjHZjgvz1r38tEfiHP/yhu/baa8tv11faOAIP/tOf/lTGBUeuI1FPYVGQiAdZf/zjH0v/G264YVMe1g+0u+5+20C+Pvp6Rl9RRB7PBAr1M677Pl3DYz2PvuHZZ1LJShud0gF+8ea3eftodOT98pe/7C655JLutNNO6379618XLN5pp526u971riUiphLGePJPf/rTwuwOO+zQHXPMMd0rXvGK4m0//OEPi4e/853vLLBJ0fryePOCFnzc+ta3Lor+3e9+1/3gBz/ohfW73/3upT/eKeU3v/lN97Of/awYZ4899uie8YxndPvtt193+9vffpOXUygjigKyigjyn3rqqd3FF19c+NDfffyuBNY5AF384he/KDztvvvu3ctf/vLuMY95TEGkNvK23Pi5MO26667d4x//+O4Rj3hEgbepRIkf//jHSy4FkS0F9/fff//y+0tf+lIx5Kc+9amSHw844IDu8MMPL/0I/ulPf7o7//zzewschsEzpbh/6aWXdu973/uKon7yk590r3/967s3velNJd8k0jmXKDv++OO7Jz7xicUBalJc3fve9y736GIljsyZ8C9IvvnNb268OkyT3YT3UhjG73Of+0xue+21V4k2kdNHrt/tbncrfc3FaXg65fLy7bbbrrvnPe9Z7ik6Znm/yLnXve5VCoD73ve+myIJ8XpRzetFNmNqIlN0gUeO1pK5FDiinyytfIu0Pffcs8g6pIuWJhtPCN/qVrcqjGuUwEsJCL5mNZDmeTDIc4dKYcRIvNkc+iomQMguu+zS7bzzzqUKyz1Cz/J884JAkeYTD8YQiRwRP4zonnHudKc7Fcdyz/hDPBrH3PoYw29z9clet+Qz8kcG8w7N09Jk2KwJAwoZsCc3En6I5BBeKsdQ3BjyTD5B5YMe9KAisOjnsT7HVHzy5yc/+cnyGXroQx/aPfCBDyyQ+41vfKPkS/zjzXXRST5RZZ555FmR+/3vf7/kxll8MTTnMLZ5FqWlGQ+8vPe97+0+97nPlcKjjyhf36zjQFxgax55lkcy/GMf+9ju4Q9/+KbIF31j6Morr+y+973vFaVxgqOOOqoUA6D3Rz/6USnMKFz0iUa5lnMgcAau5xHjffWrX+3e8573dFdccUXheciAIlsuJ8OUumEybLakvBZ1vJr39jX3fvzjH5d1onKYIccQw1EsIqiiQc6i4OSIMZHHqSz6GVDznBwqX8qblEkOkMdQ7okKOVJkcJYxpMAhI1ln6cN9zmLOoMsitDTjmRzW8zRGmdfGMis3gDTKjvEJ/t3vfndTy3WKQOBun332KVFTw5E5Mz8DgXoQ53nPMuZDHvKQbt999y2GVKhkLn37CpY+ooMxeojOOMUY52tpacZDsyBiKqnywN1b3vKW7q1vfWtpF1xwwX801ywfPvOZz5QIfcITntA99alP7Q499NBSXfYRQ3z5y18uS5R3v/vdZQ7QZXfnaU97WoFn24G2wd785jcXCMTLGKKDRfQQVFmUlmq81SAKk0MYxzYZZdrnfNe73rWp5TfjcSBbXNZ+Bx54YIG+PpLXrBkttOVq31Wxnj3iiCNKIWFe45r761//+mjjLUIiEC83K2yuFokQkAXaaqhMU2iAPrAJXhUjciKjiZ66mFGGu68kB1UW6slNIFLh4jm5VB/XzGFu21Wg9pZEt3jjzaKs0ywdVLB2UOS4rLNaONJXLtS3bQ9+8IOLocHdlCi4OWjNGo+BVISKEltTz3rWs0rp73QgVWFrBJUjOH3mM5/ZPec5z/mPBipFnKXLsvP2atFSjQe7pybfRYlhNLsfokZ+UyXaIGa8vp0KfZ3X2Q9tI0+VKedltydtCqWanEeRYSotzXiUZevKwluyl2/6mnsWyFPLY8/JTcYBkRRuracp7ylcLpOjbIOJ0PCTfprnRK4caEzPWZYoSnLkNcURyWQ8Ms7TQ3iguym6WMoOi4kZzvqK59plsDPfEi+Ti2zAMjLFLkoMZ4FuE5riU1zw9GwUKGAslBUw+DrkkEOKgiwbPIMPhtJPweK5lr7zne9Mqi7JJMKhAMPUJxQ10YMNBxsEeLzZjMdreRMl2e6ZBwX2CLNjsah3qyRtjzl+oShFhogzDmNZr33oQx8qUQdC5UB8mcucOXUQmZYHjpY815KdGCcMi5J55FY8id5ZlP3ZWSchs2gpsMlrMCEaRMX97ne/mc1WlAjqi855ZB5GMQ4lOV3gwcbiNMr7L3zhC2XNR/kW3qpR/TmYvviNsS3UnaG1zRKh70xwHuGDbGSsZe5rEAj/ZJoSeZONB2oIb/vI1pW1EsiyzTSvUar+dt41CjfemCRPObaxGAEEgmjjWYv5NI4Ik1PcD3w66MxrBYys+a4/eNRPf8/KiSIa1M6jQDC5Ig/Z8NLK3TaQLcL1p0NrVm8CkGkMTYZNSf1rX/taUTjPmUoiwO6F8cYuginMvIR0YIoPC3nX3LMtZiywREFgFFlWaCAtxEAcgrGsE6GHayIPrFLsLFJhc76vfOUrhZ8peTwk0h1Ljc21k43Hk7369u1vf3sS/IUoW26g5Gz8ujaP9NFfxF100UXFiKJNzrXFJTopHgR6zYJSHfGILJVgTcZiUHnU+R5ndO6X3ZdZJOoch8mdIHgK/IU4XKpdNE8PC8GmwQJtvETIe9eC509too4BwBYy/pi9Pvd5Oj5AFcWBHkayxSXnMJQ+vNlcic66OFDYcALRpnBQvWpyZR1FiWrks+YR72QgSyvfIo0u6TS5tp6zj0aHDOEoQwkMJsZC3CKEWRFA+fPyDQ8Hi6JIua2/dRNjgTxVn7yjj4IFMRolMxajkQGMMpplhEJD/xhS8WU8/WytWZKY19gMbGmkap1SKc4jaCb34gNPfRE96tU/1gdt4MExydQF7Dwyj6KBIu14+M6bHcmcddZZpc/jHve47oUvfGHZzqJYSZ7Xcig8iQKeayzKtoYivHv64x3UZZlhDoqiJIeuHIdxGFnEigTPglNOYu2myFHR6mOslUDlEOEPfNODihSf7Tyj/1aBALXHrhZhmvJUkzyaYfqM59yNgShSwxdFyz2OcfwmuP1O22EMJ//Jj4oLirHHKUfKlQxNQYkuRjGu55D+7uMPQnAC9+hlNQgP5sIPffRF9+h4NxDm5YJsL4FRHuvaIs0z9bZWPQ4YjOHmEQHx5BmNgl1L+S0CCe6esRUxYC5lub6iz/zg2liMIZ+BTs+FR0rkLNm/zby1XGMaOc1Xy1+36AI/xjfPkC5GR15LvDLrJ166CEUphMEYyDMOb0augy9wNhR5YBMCMAY4t4ZTpUn6IgxP4FeOltf0BXXvf//7y6k4Hk4++eQynl0b0YSP7IlSnkU92MWjOazNUlhNoUCh7bN2HWkOkWyO6NTcUEFf0N/S5BrfYlIJrqRmyLHEc+WWRz/60UWxIkNeM5YFv+iQX7yKgPkhEgUE9KzX4SlXfwZ7wQteUBSDR5XoZZddVhxB6a9fSwxrg8Ef0ljbcQJwykHsglDsZz/72eIUlDuVRJHCx/aeYqc2HoIUIB30Qw7OgwcnIYqpNgInG4/BbN5SzCI5kPGQPUfermWbSjGkIBAVWfP1EbhDnuWlIsl6U7SKMk7Bw0WtcT/xiU8U4+GzdrTkFZ+ug1MGtNbi7Y6KQpRpXTtv3TeLOJdtMQfCeIkcITJzDnzThW1AGweuc9aWRue8lkxMeQZum4gAgTwfFPFkv93DRJTI08Cd/ozq+rwCQD+wlsWs7+DGdWODFzlTRPvumr54MSdvZxhOgn/P4w0vGtjEkzHdrwlvZHAvY5KvbYHe6MJ41pj4xYNx8aXh2/zGy9xprs/Sx2TjUYK1zkEHHVQ8qW6iSnlLgYws2csr1lvuS9aE/OIXv1jyEEZzn2daYIuUPiKgKPNyrxMEv/VXUYo4OUI0EbpVvkJAuY8HsBXYNRZPB53k8rxW8wDCwL2DX/LJiS3sIdAG4rwRrtolj/wuHbTEcBxAngbLdAHmORFqYbKlybAp6R577LEl4bfewcvkhw0bNhRohfNex/OnW4oR66ePfOQj5bU9yj/ssMNK6c8ZRA140VpYQQSVu7yuBxpB27Of/ewCmZ51zbMUwwA1eTs68yg8Lr/88lIMWcz7TZGJOChgjJC/LnJaL5o43mtf+9qSp32viWPanrNE4Ywq3wsvvLD85Y/0UJPoJI+31+y/kle0ceYxNDryDFw3UcX7RIzN3DQ4zUsZibfxHvDFGxlcf8rl9YwA4ylMiSyC3NeX15unJX0pITv4YEhEeU7UgcPksZbAJd4YGi9ItCmUfFImRwRnibyMIw9zwsgXVGnJM3gQbXjyjN8tkniWk9ADBzC/Yorjc5AxNNp4vJBH8FJrJE3ytiHskxEoEmGsFowXw3TM6W8ckMNgFM64ItDYGS9zEMxYFEZxGoVQPgVxBM9TDkfpU2jIvRglhmEoSvQsh4vCjWluPHAS/OvneYbjMHjAFzlUkpnbp/H0zXqQnPpCB9ElIjW60Me85OFgxh9Do2CTgAxjO0ie4R2uRXifokZJi8EIEWIYuQXxQs9QFBhjWNfkHH3cq0kkEMYbYq33ui53eT5zhp+xFMODWzkTenhensaTF28RyJS/GIKyVYGeVYQwMt7ppyYGZCx5lvNDDE7L0cEoXjkEJOAMch0UkNNB+DwaZTwT8Dxl95lnnlkiow5tQshnBAalmK5JRGneTkbO22xNWe8wgFfOzz777DJ+ojekSDjuuOO6V77ylUUBrXEpIwZA7f2xJIqe8pSnlHzFQNaOeProRz9a7p900klFwSCd8eQ0uRrsWZude+655Z2YmjgB43FS61qwrAaQ620WkMd8z3/+84szMC4dSQ1jjDe52hyieNM8YmBKZzxCUn5r9BD4kT81iqtbKj4R2hZOi5C5jZ+9xDbKEbnMgd+ap76+KP3wqJ9xyew6Mqfm+Yyl/1ja4pRTTvm/jd8HiUF4A7iUWEEMbHZdpGDA0gD2YwyU6MeTKDh5ieBgEsSqxOxeuJ6+hDCGKEgzLigGjeCpr3lWgw7mpyy8hQ9wZCzlezYALO4hCP7xhxewKadSMmhTUCHPel9GP/3Nlbn1cQQFNYwXmIQY8hg+8KSJNDoExyIQH8md7otclbg/UjWHKAfX9GXc1rkXOhIyOIhQVlOKl3ysTzCh/LY1hRmKZgQTUiRG7BpY1/kOQryl7O1ljqAgCMNt9MRp3JtFPFZR4I8uQRADeIaStJT+4Mh4+itMzI9HJT6FZ33KEPIYuEd5roV14zKikl+xxRCWI09/+tOL4oNCjENveHnjG99Y/iEDtQDHtCtEXyDYGPKeueh0xf8ahIkJyXN5EzIBj+ZxJrW1pCEMWQOalNeoqkyM8RbLeRMmKbI2nDmRZ/wV0DnnnFN+DxHIoQSOwwgiXvUmB4soPPrXH+QyW2CQwz8XYp3IYJ6HAvg0d6o/xkH+ER9bgX3/YsUQcfpEXh9xhCx5WsLLPBqd8zAA1oLbPnksYfua/vrIIRQZxWgMRijGErUU5HrG1V/UchjXjJVn22asKCdjijAe776xGFTLeOTQ8O93roUfzXdjh6fwHPLb+J6r+dHwY35yabNqgMiWcWp55tGonIeymLTusV4DoXIKj1Veg8y0/Cmw1wh4OGWCXUoBbaJM7qEgOQMEp5lDf/mFIKIbhOgrL9XziGr9srgG2ZYr8imnqRVB8WCUHObOQt19ctR8pDquf9uNUcJblzEoGc3jMylDE7EgTh98GRslD0Oe5Dxyim66wje90Gcceik5j+dQoJzljxt9N5FJMc6ja+/CuHUc+OT5FEZxFIQpDiCfgN72fMxzGPavEYkWRo8ya+bN51nrzne84x0FminSXwtZhhA8xtP0V6TgAf+eZQzPU/A8b8ezIoZB8PXc5z63QK55OE5IjpY+5Hg8c5D8Awj61jkPbOa03xqS46ojbLvpt5Scx2MYgBfyQEI475JLbNQamHICKxRBcZlMFPBIxgw82fu0EWusmvQxHu9DHCMRV5MxVJea8fsIP+EJKQo4B4/nTPKXAqwv58wickEb8kf2EH7IxNgMoU5QfdrMZnTOGxKNeKJDRuRYnuVQY2hUzosxYD/hMZylgshI481pvIqC9SEcY3AA/QJzlGBs0ckrjQv6AnnIJ4OL5r42ROalKPOJLM28yHgUZ17zpbAx71AEgq3ITuHGJ2crO5gnm/76ZtPCPTyoMEUnnZiLDlI75HMsjV7nUT6DYEQUiBD4jCkeIw+mCX+KowyKojQQAiZ5ubKa1yuLjcuLlfc5QgF/PmMc89ct1yjBGsshKShkCNtlmmflJ3OYD6xSam1090WDtR2DIOPUkRQyphN+x0mQgGycUaQYO7L7Lq8xBD1JL+YgJ9i2hSZlWIowlNxrbBUvPYFL96HcvJw3CjY9JNIkaMwQjjEc6zhSARU1KUqsdRwDYQ5EwXFHHwod3snomGVcJf6Tn/zk8ikaFCGzogAlmoeIoSjTnPI0srb01jTnoAx5iJPghVM5uiGX6KjhDTGaVxI4GnktX+TaFCQhTvCwhz2snHOSh8HoyVtroBRkm08TySuhUbCJKJkBMS+RghoKYgxM1c01TGOQghmJN/JKHidSAy8MxFjG4xgSPE9lHIJSYh0JIs414/pMJIYSkZo5OE74ggiiRR9ebx6OxutBHD7I2ec0ZNdPFOARCjF0LbcmYvAtanICgvABBdwX8WRfKY02HoFEYGAHLLjWBzGUmiMeAoEWfUWhxK0sTlOxUiJvZlwCeiaLV45grCiUIzA+CBZZlEhJxvFJKRzEffMzYB/pZ1zKNI4IEu0gEY+cVLEUSk4iO3RgQFFLBkUJ44ZHn/pzhNoZfCersc1hKcW481BmiEbBZk2tp/cR76Z4lal8g2nC2BbzvSbjiVD9lO4tgRaGkc84ighWjckNBPa8VyA4lu+83htt+vJ2hgnhQT/3RKb55EyGY0xzgXp95B0VsWIkFNkZT/6DFu5zMH3JUJP+xs1zCj61gvwugkWnaDavORelhY03hkSRMtlah4JhP6XIGaovSgxRolcAHJHoXysL8U6vAcojlE5R/lEbOYTgGdd3UG3ryz94yiD6t7kLuS4ivebndQqRKnrkRPOIInwqLjhhTeQRKRxGDcDxsqbjULNI5DK4ZZZ55MfsKE2JvNHmjhfJNZroopghj9GfYIzBQAwmp/C2tqVqZXT965a8GTInPnyCUIYARZStCBHZxpFXPA9W+wh/gXfRbCxKFAV4ylihOEJyLZ7NmWVTiyg1BXkQIzEYXYBl47i/asYjaMpii1o7LXYReKC/aeP9fc1hpcbTLNL1532YTZND5A/LBDsJqjTVIKdgJErTIpytLaW1A13/6rmIYTwKSUHlnl0N8JSCoY/IFaWay5z468vnZHdcQ3bbW5YU+sQwfcp3DV9kV9mSDb8cEmSLWNHtN14WpVGwaWAebCI78yCJZ8pDjnV4EUGHGHCfALyMQOnnO8Hhv7fQRIyKkIIULvJXTZQLdmxLqXg5g2qRQSmR8RQR5gGLiha5CNQuSnisjcdw+DGXCOWcdID/ul9N+MWjnC1KoUEqYMbjuBxVLUBHi9Jo44k8CnVMTxnWPdZysJ9CCVYbpSaK5YGUWpP+BBQd4Ir3q/4Y0TMtGZfDUJpcGK+nTN/BEKMaDwyCPzzPIpDeOgm+IktIMcIZ4iS2vLJeHCL8Mp6++ALjcijDeYeF0RlTxaoSX5RG5zwTMSC4MCHcpzTK5FWSL/zP9hGDpjEMIRmqJUoCU3U+1Ld1gBDl6WteUeB7DB1Dup7c5fei1Gc8yCM/QgbI4zdnm0VBFvLgKfwmX9OlfGusdr4xNCryasokhID9DCLn1AQOGJG3uUe5Q8y5rpy3thNxIMW4iQZQw+tVo4TOOOY1D9iU5yglzjFk+FAiQhXsBIICjSXqRQR+5Tg5E+Rxrpo4hHXarKirKTwzpKg1LpRgfOtKMvQ59jxa2HghC2p/wAECauEoGIOKCYYLpPURJeoPjsAxSBHVHAOcId7pVQvXak+nCOPb+/OZBTVFDRnP8xCEohiPAUAsOLPw5zT+QofDgGXlvPut8cijyJIKWsgdInx5DmIYF+Tiha44+hTjLfQEBpKcRUk2hS3G0wjvqEckpZSfRe4zjIW3xbViRWHEqEgl5jdHaefxyeB1tTYr6sylURTFWzBTIiP6zmiRR+QxkHyUze40hmWEVKW14vM7fPjMd9dFqwLNnMbKTk76LEKjjZd8IpfIY0KdALy+bu5rYMgz85hyXz/KJJgxeGM9h3k5giZ69CWwT94c5bmXXKL5TsEZC7TWCsejCFRImSOfcrh86Z5nAo/WePKTBiHkPnmQ0bMW5URqA84Njt33m9O08xrXfOSfQqNP0kGLCLBzgtF4eh9hSPVkByIe2tefMBRuK0opLgITcSFwZidEVCKVm3Vjqk2e61A0pbhI9JYzHkFaeKUwywhNlHmWXMicIs3LVEEMucja034phVtyQBpGq8kcKlr3ycCp8KYadyTkdyKMUw6ROezSOGF3CuJvDtUMs07SR/9ZMyYJRcEReogoBtO8ltISGX1EsZSuyXOtkSmMQOedd175bVPAa3XWRsY1D6VwBHkYnDqm4myKDW8kO6nmQKIaT7y+JnOaW7R4jkPplzWded7whjeUvKy4qpVIF2Cbk9GPe/hJ1Wx961V9a1Pfh3QxxXijYTMGsYfIG2c1SZ7gFIYIONQojjJBG+HaseQdSg+BNoK4l03drB9FGZiy+2OfEXRSIBTQ9AW1mTtEccZw35j6Qgx9ER4Z1vqWMxk7zVwMmrwritNXIcahwGscs5Y9zfUpNPqlW5HHKwNtsyacygxKhFgrchjK8rcM3u8XXaLJP8Eomngih6L0RB54TeSp6vwNhcqXgUCePETRxvZc0IHh3UvkUSoyLvK3CB/84AcLrNaEBw4CtvHtOcZLrlOc2IUSebMW4vijW4fWIhwELwU2MYQZywLKwdxKDDREgSsVHoYZhkBemZDHMM+D8aJo0Fe1aN+QsSmet1sXMoaodV++wS+FqCblbs96Tn4Cc+axJBFN4C/GC/nrWXyYuyawykB2mlSQDCaHm0f+BZ/mYAhoNIvMi3/zWO8uxXiUCtP9xYw3hx298Mgh/J5KmCegt61POOGEEhmUKOrTLCW8OufVAhBn49tC24IbP+mH8CjCElnelvafazCSsV/0ohdtUgxFi26L9HrpEQJ9DNNeF22KE3+d6xU+Mjjikrcsb/DAUcAyXmYRvs3NMSHQ0nIepsGlwkLkgRjeuswG1kRWrTwME1wUaoRi0JTjdZHDeCnDNVHhd0g/z8mF5qvh35iUpurk9S1v9TwtMYr58OkTz4lcz5CH8dsx2zbkIEO00A6LQQms8SYlN6yvFbQIJZ/YltJShud6yG+NUnIPL8lNtbDuM6LrjKuCMzavdpzFMPj3O8/pL4IsQxzbMOKQAl2nYNDLgVHmTLOmlJNT8ITwa2w84cM4K6HJ22MMZ2sKk3LGkLCzKEq2RgIxhImRxpIxYtCQ38YVRdal4D7Qr6hpSeSAJfKAqqwN+8i4IiT/vlnbjyM7s/NpPVqT6OVI6gb5+WYznpxhEa6S4mmEWoQITcmigLLyLuMQxUA+Nc+bs47GmtwTeQ48verQR3mOA8i1ctc8Mq6cbx2msGijFHQqkPoqS8iimLKMyJ9Lr4RWVHEQmtfmc5Emd/mcRzEWYijP+WR0uWRWlIyh8DFGhjiK+cyfTxFVO68+feOZq4XSldDkyAthFOPgyJoMNIEDzLYUYS3GbT+pFmeRcRUXKkGRaUwFk+f8QYniwNaYqImBxxKjq1zxKm8bO/wh5b+tNEsQY8doPq3rrNt8ep4s+tdwH72AVssPW2jglsOpF/y7LoxeEyilR33JOY9WbDyESQnYKxL2ITHI8/pI7vHaHMpCfIgogPGcUmzYsKEoh6LkEv9tKU+meK2OijHEeFm7iQbPIvwhGwF2WaSH8KgPuTiNwsaGgf6KHTVAZM5Y9AIq6UROl4OlmLzPonquiQ6daOBtjPGWtlBjMJHnaIeyKaav8Xa4rzSOlw8RJfBOOcJzno8CLIodaiowREAUhhiQ4mYZ0tx2S5zhWVDX/GmqSTK1ZB7FiE1nOzj4YESL8ZoHZH78iyY5zsa3SpPTyq+eTVMscWrjiswxtDTjId4/FHE1je0X6lOKxuvBFu8WoRpoyjoODJmLYusGZlXIWZMhnyLBPU3hIQIyXt36rvU1uzGJIA6W+bO0ioPNcrJZtBTYDI0tQpZBySfyoWhXAQbyEIVwEND34he/eOPVf5N+noUAooGi9RMBchflMqaSPrskUwgP+MSHt+PAsy070WUDYeq4oaVqeqXMLEKUIurAm2MU+66tBzuP84abHFlHOsi0wPZeDEgToXKbPOTISZRYe/qroZWU9JxZcaU4AYlOWxhQjlxG1blU2PxfESMxgF0SipdH5C/rxLrJWRTl+MjaK80ajFJBGCUyLMQAl46mFB8MKDoZeV6Th+t5OYRr0MBa0/gZm5OA5DhTLYvGKcfSmjMeYzk/U36DTEpqS+4QBSWnzSNRbFwRrMmjlO2kYFZTrCiaOAnkEW0MZJfFPU4idzKqyhZSyIUMxWhyoqUBCFfwkQcvY2ipsNnC1moQr/bHJCKNUnzKWbOIUgPpLY9+a8ZQphtfzlO8eH0hy5ohYgDKlx+tRT3nGMr6U26zA6PAcU7HmVTKKkv7qIhRVec5ivLbkmEMLdV4Cf3VJMoFRyKK0hUfK5mTcjkB43EK4zK0453nPe95paSn9KF8LuoVTAwoshjP8ZSjKjkXpG/41xqV8WxgiFawrTBieM5nXv9ADznI4/oYxFgqbKqgUoYPNcLB/LFw1lKWB/IZxRvHuqidJyU55YJazXN1RerZ9M2ZG9hjTGQpocl/+a6RUz/5iaKNWUc0Y8ul+hkTGTPzp7/55do4hzH1p6PMM0tPS4k8E1MCmMEMRQ0RxnmfXfyVLCsITDgVnLxCYNdCeHIPBFmEM6QcplSnGEoSAVkeMEKIweWrdkxE6Qwh31pLyo3eYxG5jOl+Wkt4iqEQY1mi0Jv5PeOeT/1ALD3hPc/UtBTjmYhSsmUUzx0iCd3+Ju+sI2ER4pGMYLvMG2IMWHspBagEwZmdE45iP9KygdE8S2mUxwBtlUdxdkL6jCfi86pfFux2gdoxKLxP6ch18uPbm3D2UWuDmxePiiFOulTjmUiLtzGItijB+ZrpWVQr0neeK2o4jfdEauOJHgtw+4pefUCUpQrkOBSioNBmUcub34zHIezlir6aYrDoBp+5FgO4p+EHOmjtvVB9vaXJOU/EEILXrqSBWIpuvTZE+OQF0JyNaN95Jj6Mw/uV4BlXCW6NhccQaJIr3Uu/RZrxMw/Fg9XwlLyJJwqX3zxDPr85i9xJFvIaA3/uB7J9qjhdF9Ge13cInUa/gOQE2Ms5p512WlmL8GD5IifpU0nk2Qj2sqw3pyjB63r+OUWQplpTSqvIWuxnUMoCcRQp8nKfIqypwFv+qWEnBcp0C/Up+Zb3czKGUSVyDNfMmYjBY/YxGVVf+mIsemR0cKywY2w5zbKBrBwrC30ORiaIIlfHKWqabDwDU5pJwddUogxFRd5hIZg3jF/1qleVsbPL0a59POdeXudr71Ok8epXH8ATnimtVcQipNjxLqicyQjmCokU78pYPtATx/bGASPoi0/OakGOvOZIXrWCqObEHJUjM5q3wy1XOANnrWmhV/+sRc4444zCFM9eiQL6iEF4ojWWfxCc8YbmMD9okXde97rXFSP+r4giIQOlc4YYD68gz56pF38hhpzq4NifQSvqGM09LxKLXMXKS17yknK8ZP1qn9a60FGVYuX4448vBRm9tMuG0f/2mIkYTYkMcmwH8aRlNnDDYLzRzsZQleWaxqmyr+l735ir0aAD+JU68BwSGSIPT6pchgTRUgsj6usaOFfoBBbzrwdCElt0kAKEKsacWapIPTsp8kQECILFqjeT1FCxLDImbKcUuxN9OB/SVz7hTF4yAjn/KwKbIiUHwdEF5eLJVpetMnDPQJYBMZ5rOZT1HCgHqzbD6Vhkep48nmU81fFk45kETIk+gzJmGF42iWpM8/AWJloSbTyUN89bWy6T8KUYodCax6CBClLBIQrdl/f0JRs+8UuX+kMXOdgnHZOHEfVjLMsv94zTOvIo44UYDHOrTZhuvWyI8LSazjREs3hsedKP4qN897Rcq++1z/YZLbSQ8dbplkXj3HudbpG0brw1TOvGW8O0brw1TOvGW8O0brw1TOvGW8O0brw1S133/9kupYoKPjRVAAAAAElFTkSuQmCC;" parent="1" vertex="1">
          <mxGeometry x="190.52" y="93" width="28.96" height="30" as="geometry" />
        </mxCell>
        <mxCell id="QEhOT1YJAH4faydGy3Kk-13" value="&lt;span style=&quot;color: rgb(240, 240, 240); font-family: Helvetica; font-style: normal; font-variant-ligatures: normal; font-variant-caps: normal; font-weight: 400; letter-spacing: normal; orphans: 2; text-align: center; text-indent: 0px; text-transform: none; widows: 2; word-spacing: 0px; -webkit-text-stroke-width: 0px; background-color: rgb(102, 0, 204); text-decoration-thickness: initial; text-decoration-style: initial; text-decoration-color: initial; float: none; display: inline !important;&quot;&gt;&lt;font style=&quot;font-size: 10px;&quot;&gt;기록보기&lt;/font&gt;&lt;/span&gt;" style="text;whiteSpace=wrap;html=1;" parent="1" vertex="1">
          <mxGeometry x="247.5" y="320" width="45" height="20" as="geometry" />
        </mxCell>
        <mxCell id="QEhOT1YJAH4faydGy3Kk-14" value="" style="html=1;verticalLabelPosition=bottom;align=center;labelBackgroundColor=#ffffff;verticalAlign=top;strokeWidth=2;strokeColor=#0080F0;shadow=0;dashed=0;shape=mxgraph.ios7.icons.settings;" parent="1" vertex="1">
          <mxGeometry x="462" y="182" width="10" height="10" as="geometry" />
        </mxCell>
        <mxCell id="QEhOT1YJAH4faydGy3Kk-17" value="" style="verticalLabelPosition=bottom;verticalAlign=top;html=1;shadow=0;dashed=0;strokeWidth=1;shape=mxgraph.android.phone2;strokeColor=#c0c0c0;" parent="1" vertex="1">
          <mxGeometry x="380" y="90" width="100" height="190" as="geometry" />
        </mxCell>
        <mxCell id="QEhOT1YJAH4faydGy3Kk-19" value="&lt;font style=&quot;font-size: 8px;&quot;&gt;동료 ID : &lt;u&gt;Test2&lt;/u&gt;&lt;/font&gt;" style="text;html=1;align=center;verticalAlign=middle;resizable=0;points=[];autosize=1;strokeColor=none;fillColor=none;" parent="1" vertex="1">
          <mxGeometry x="380" y="113" width="80" height="30" as="geometry" />
        </mxCell>
        <mxCell id="QEhOT1YJAH4faydGy3Kk-20" value="" style="html=1;verticalLabelPosition=bottom;align=center;labelBackgroundColor=#ffffff;verticalAlign=top;strokeWidth=2;strokeColor=#0080F0;shadow=0;dashed=0;shape=mxgraph.ios7.icons.camera;" parent="1" vertex="1">
          <mxGeometry x="457" y="113" width="16" height="10" as="geometry" />
        </mxCell>
        <mxCell id="QEhOT1YJAH4faydGy3Kk-25" value="&lt;span style=&quot;color: rgb(240, 240, 240); font-family: Helvetica; font-style: normal; font-variant-ligatures: normal; font-variant-caps: normal; font-weight: 400; letter-spacing: normal; orphans: 2; text-align: center; text-indent: 0px; text-transform: none; widows: 2; word-spacing: 0px; -webkit-text-stroke-width: 0px; background-color: rgb(102, 0, 204); text-decoration-thickness: initial; text-decoration-style: initial; text-decoration-color: initial; float: none; display: inline !important;&quot;&gt;&lt;font style=&quot;font-size: 10px;&quot;&gt;추가하기&lt;/font&gt;&lt;/span&gt;" style="text;whiteSpace=wrap;html=1;" parent="1" vertex="1">
          <mxGeometry x="407.5" y="147" width="45" height="20" as="geometry" />
        </mxCell>
        <mxCell id="QEhOT1YJAH4faydGy3Kk-26" value="&lt;font style=&quot;font-size: 8px;&quot;&gt;동료 리스트 스크롤뷰&lt;/font&gt;" style="rounded=0;whiteSpace=wrap;html=1;fillColor=#9933FF;" parent="1" vertex="1">
          <mxGeometry x="390" y="213" width="80" height="40" as="geometry" />
        </mxCell>
        <mxCell id="QEhOT1YJAH4faydGy3Kk-27" value="&lt;span style=&quot;color: rgb(240, 240, 240); font-family: Helvetica; font-style: normal; font-variant-ligatures: normal; font-variant-caps: normal; font-weight: 400; letter-spacing: normal; orphans: 2; text-align: center; text-indent: 0px; text-transform: none; widows: 2; word-spacing: 0px; -webkit-text-stroke-width: 0px; background-color: rgb(102, 0, 204); text-decoration-thickness: initial; text-decoration-style: initial; text-decoration-color: initial; float: none; display: inline !important;&quot;&gt;&lt;font style=&quot;font-size: 10px;&quot;&gt;라이딩 시작&lt;/font&gt;&lt;/span&gt;" style="text;whiteSpace=wrap;html=1;" parent="1" vertex="1">
          <mxGeometry x="397.5" y="175" width="62.5" height="20" as="geometry" />
        </mxCell>
        <mxCell id="QEhOT1YJAH4faydGy3Kk-29" value="" style="verticalLabelPosition=bottom;verticalAlign=top;html=1;shadow=0;dashed=0;strokeWidth=1;shape=mxgraph.android.phone2;strokeColor=#c0c0c0;" parent="1" vertex="1">
          <mxGeometry x="150" y="440" width="100" height="190" as="geometry" />
        </mxCell>
        <mxCell id="QEhOT1YJAH4faydGy3Kk-32" value="&lt;span style=&quot;font-size: 8px;&quot;&gt;라이딩 기록 스크롤뷰&lt;/span&gt;" style="rounded=0;whiteSpace=wrap;html=1;fillColor=#9933FF;" parent="1" vertex="1">
          <mxGeometry x="160" y="470" width="80" height="130" as="geometry" />
        </mxCell>
        <mxCell id="QEhOT1YJAH4faydGy3Kk-35" style="edgeStyle=orthogonalEdgeStyle;rounded=0;orthogonalLoop=1;jettySize=auto;html=1;entryX=1.03;entryY=0.358;entryDx=0;entryDy=0;entryPerimeter=0;" parent="1" source="QEhOT1YJAH4faydGy3Kk-13" target="QEhOT1YJAH4faydGy3Kk-29" edge="1">
          <mxGeometry relative="1" as="geometry">
            <Array as="points">
              <mxPoint x="270" y="508" />
            </Array>
          </mxGeometry>
        </mxCell>
        <mxCell id="QEhOT1YJAH4faydGy3Kk-38" style="edgeStyle=orthogonalEdgeStyle;rounded=0;orthogonalLoop=1;jettySize=auto;html=1;entryX=0.01;entryY=0.324;entryDx=0;entryDy=0;entryPerimeter=0;" parent="1" source="QEhOT1YJAH4faydGy3Kk-7" target="QEhOT1YJAH4faydGy3Kk-17" edge="1">
          <mxGeometry relative="1" as="geometry" />
        </mxCell>
        <mxCell id="QEhOT1YJAH4faydGy3Kk-39" value="" style="verticalLabelPosition=bottom;verticalAlign=top;html=1;shadow=0;dashed=0;strokeWidth=1;shape=mxgraph.android.phone2;strokeColor=#c0c0c0;" parent="1" vertex="1">
          <mxGeometry x="560" y="80" width="100" height="190" as="geometry" />
        </mxCell>
        <mxCell id="QEhOT1YJAH4faydGy3Kk-43" value="&lt;font style=&quot;font-size: 10px;&quot;&gt;현재속도&lt;br&gt;최고속도&lt;br&gt;경사도&lt;br&gt;주행거리&lt;br&gt;평균속도&lt;br&gt;라이딩시간&lt;br&gt;&lt;/font&gt;" style="text;html=1;align=center;verticalAlign=middle;resizable=0;points=[];autosize=1;strokeColor=none;fillColor=none;" parent="1" vertex="1">
          <mxGeometry x="412.5" y="380" width="70" height="100" as="geometry" />
        </mxCell>
        <mxCell id="QEhOT1YJAH4faydGy3Kk-47" value="" style="verticalLabelPosition=bottom;verticalAlign=top;html=1;shadow=0;dashed=0;strokeWidth=1;shape=mxgraph.android.phone2;strokeColor=#c0c0c0;" parent="1" vertex="1">
          <mxGeometry x="397.5" y="360" width="100" height="190" as="geometry" />
        </mxCell>
        <mxCell id="QEhOT1YJAH4faydGy3Kk-48" value="&lt;font style=&quot;font-size: 10px;&quot;&gt;최대 간격 : 3km&lt;/font&gt;" style="text;html=1;align=center;verticalAlign=middle;resizable=0;points=[];autosize=1;strokeColor=none;fillColor=none;" parent="1" vertex="1">
          <mxGeometry x="565" y="128" width="90" height="30" as="geometry" />
        </mxCell>
        <mxCell id="QEhOT1YJAH4faydGy3Kk-49" value="&lt;div style=&quot;text-align: center;&quot;&gt;&lt;span style=&quot;background-color: rgb(102, 0, 204);&quot;&gt;&lt;font style=&quot;font-size: 13px;&quot;&gt;설정&lt;/font&gt;&lt;/span&gt;&lt;/div&gt;" style="text;whiteSpace=wrap;html=1;" parent="1" vertex="1">
          <mxGeometry x="600" y="195" width="45" height="20" as="geometry" />
        </mxCell>
        <mxCell id="QEhOT1YJAH4faydGy3Kk-51" value="" style="html=1;verticalLabelPosition=bottom;align=center;labelBackgroundColor=#ffffff;verticalAlign=top;strokeWidth=2;strokeColor=#0080F0;shadow=0;dashed=0;shape=mxgraph.ios7.icons.back;" parent="1" vertex="1">
          <mxGeometry x="572" y="104" width="8" height="6" as="geometry" />
        </mxCell>
        <mxCell id="QEhOT1YJAH4faydGy3Kk-54" style="edgeStyle=orthogonalEdgeStyle;rounded=0;orthogonalLoop=1;jettySize=auto;html=1;entryX=0.016;entryY=0.395;entryDx=0;entryDy=0;entryPerimeter=0;" parent="1" source="QEhOT1YJAH4faydGy3Kk-14" target="QEhOT1YJAH4faydGy3Kk-39" edge="1">
          <mxGeometry relative="1" as="geometry" />
        </mxCell>
        <mxCell id="QEhOT1YJAH4faydGy3Kk-55" style="edgeStyle=orthogonalEdgeStyle;rounded=0;orthogonalLoop=1;jettySize=auto;html=1;entryX=0.993;entryY=0.12;entryDx=0;entryDy=0;entryPerimeter=0;" parent="1" source="QEhOT1YJAH4faydGy3Kk-51" target="QEhOT1YJAH4faydGy3Kk-17" edge="1">
          <mxGeometry relative="1" as="geometry" />
        </mxCell>
        <mxCell id="QEhOT1YJAH4faydGy3Kk-56" style="edgeStyle=orthogonalEdgeStyle;rounded=0;orthogonalLoop=1;jettySize=auto;html=1;entryX=-0.003;entryY=0.474;entryDx=0;entryDy=0;entryPerimeter=0;" parent="1" source="QEhOT1YJAH4faydGy3Kk-27" target="QEhOT1YJAH4faydGy3Kk-47" edge="1">
          <mxGeometry relative="1" as="geometry">
            <Array as="points">
              <mxPoint x="360" y="185" />
              <mxPoint x="360" y="450" />
            </Array>
          </mxGeometry>
        </mxCell>
        <mxCell id="QEhOT1YJAH4faydGy3Kk-57" value="&lt;div style=&quot;text-align: center;&quot;&gt;&lt;span style=&quot;font-size: 10px; background-color: rgb(102, 0, 204);&quot;&gt;지도 모드&lt;/span&gt;&lt;/div&gt;" style="text;whiteSpace=wrap;html=1;" parent="1" vertex="1">
          <mxGeometry x="425.5" y="480" width="53" height="20" as="geometry" />
        </mxCell>
        <mxCell id="QEhOT1YJAH4faydGy3Kk-64" value="e. 속도계" style="swimlane;whiteSpace=wrap;html=1;" parent="1" vertex="1">
          <mxGeometry x="380" y="320" width="420" height="270" as="geometry" />
        </mxCell>
        <mxCell id="QEhOT1YJAH4faydGy3Kk-58" value="" style="verticalLabelPosition=bottom;verticalAlign=top;html=1;shadow=0;dashed=0;strokeWidth=1;shape=mxgraph.android.phone2;strokeColor=#c0c0c0;" parent="QEhOT1YJAH4faydGy3Kk-64" vertex="1">
          <mxGeometry x="152.5" y="40" width="100" height="190" as="geometry" />
        </mxCell>
        <mxCell id="QEhOT1YJAH4faydGy3Kk-60" value="&lt;font style=&quot;font-size: 10px;&quot;&gt;현재속도&lt;/font&gt;" style="text;html=1;align=center;verticalAlign=middle;resizable=0;points=[];autosize=1;strokeColor=none;fillColor=none;" parent="QEhOT1YJAH4faydGy3Kk-64" vertex="1">
          <mxGeometry x="172.5" y="60" width="60" height="30" as="geometry" />
        </mxCell>
        <mxCell id="QEhOT1YJAH4faydGy3Kk-61" value="" style="html=1;verticalLabelPosition=bottom;align=center;labelBackgroundColor=#ffffff;verticalAlign=top;strokeWidth=2;strokeColor=#0080F0;shadow=0;dashed=0;shape=mxgraph.ios7.icons.back;" parent="QEhOT1YJAH4faydGy3Kk-64" vertex="1">
          <mxGeometry x="167" y="70" width="8" height="6" as="geometry" />
        </mxCell>
        <mxCell id="QEhOT1YJAH4faydGy3Kk-62" value="&lt;span style=&quot;font-size: 8px;&quot;&gt;지도&lt;/span&gt;" style="rounded=0;whiteSpace=wrap;html=1;fillColor=#9933FF;" parent="QEhOT1YJAH4faydGy3Kk-64" vertex="1">
          <mxGeometry x="165" y="90" width="75" height="110" as="geometry" />
        </mxCell>
        <mxCell id="QEhOT1YJAH4faydGy3Kk-67" value="" style="verticalLabelPosition=bottom;verticalAlign=top;html=1;shadow=0;dashed=0;strokeWidth=1;shape=mxgraph.android.phone2;strokeColor=#c0c0c0;" parent="QEhOT1YJAH4faydGy3Kk-64" vertex="1">
          <mxGeometry x="290" y="40" width="100" height="190" as="geometry" />
        </mxCell>
        <mxCell id="QEhOT1YJAH4faydGy3Kk-68" value="&lt;font style=&quot;font-size: 10px;&quot;&gt;현재속도&lt;br&gt;최고속도&lt;br&gt;경사도&lt;br&gt;주행거리&lt;br&gt;평균속도&lt;br&gt;라이딩시간&lt;br&gt;&lt;/font&gt;" style="text;html=1;align=center;verticalAlign=middle;resizable=0;points=[];autosize=1;strokeColor=none;fillColor=none;" parent="QEhOT1YJAH4faydGy3Kk-64" vertex="1">
          <mxGeometry x="305" y="70" width="70" height="100" as="geometry" />
        </mxCell>
        <mxCell id="QEhOT1YJAH4faydGy3Kk-69" value="&lt;div style=&quot;text-align: center;&quot;&gt;&lt;span style=&quot;font-size: 10px; background-color: rgb(102, 0, 204);&quot;&gt;지도 모드&lt;/span&gt;&lt;/div&gt;" style="text;whiteSpace=wrap;html=1;" parent="QEhOT1YJAH4faydGy3Kk-64" vertex="1">
          <mxGeometry x="318" y="170" width="53" height="20" as="geometry" />
        </mxCell>
        <mxCell id="QEhOT1YJAH4faydGy3Kk-70" value="&lt;font style=&quot;font-size: 8px;&quot;&gt;알림 메시지 색상은 메시지에 따라서&lt;/font&gt;" style="rounded=0;whiteSpace=wrap;html=1;fillColor=#006666;" parent="QEhOT1YJAH4faydGy3Kk-64" vertex="1">
          <mxGeometry x="300" y="115" width="80" height="40" as="geometry" />
        </mxCell>
        <mxCell id="QEhOT1YJAH4faydGy3Kk-66" style="edgeStyle=orthogonalEdgeStyle;rounded=0;orthogonalLoop=1;jettySize=auto;html=1;entryX=0.015;entryY=0.774;entryDx=0;entryDy=0;entryPerimeter=0;" parent="1" source="QEhOT1YJAH4faydGy3Kk-57" target="QEhOT1YJAH4faydGy3Kk-58" edge="1">
          <mxGeometry relative="1" as="geometry" />
        </mxCell>
        <mxCell id="QEhOT1YJAH4faydGy3Kk-72" value="&lt;u&gt;&lt;font style=&quot;font-size: 10px;&quot;&gt;ID:&amp;nbsp; Test1&lt;/font&gt;&lt;/u&gt;" style="text;html=1;align=center;verticalAlign=middle;resizable=0;points=[];autosize=1;strokeColor=none;fillColor=none;" parent="1" vertex="1">
          <mxGeometry x="60" y="240" width="70" height="30" as="geometry" />
        </mxCell>
        <mxCell id="RDk7HfD7q96trYIxuWp2-1" value="a. 로그인화면" style="text;html=1;align=center;verticalAlign=middle;resizable=0;points=[];autosize=1;strokeColor=none;fillColor=none;" parent="1" vertex="1">
          <mxGeometry x="50" y="158" width="100" height="30" as="geometry" />
        </mxCell>
        <mxCell id="RDk7HfD7q96trYIxuWp2-2" value="b. 메인화면" style="text;html=1;align=center;verticalAlign=middle;resizable=0;points=[];autosize=1;strokeColor=none;fillColor=none;" parent="1" vertex="1">
          <mxGeometry x="230" y="158" width="80" height="30" as="geometry" />
        </mxCell>
        <mxCell id="RDk7HfD7q96trYIxuWp2-3" value="c. 그룹 페이지" style="text;html=1;align=center;verticalAlign=middle;resizable=0;points=[];autosize=1;strokeColor=none;fillColor=none;" parent="1" vertex="1">
          <mxGeometry x="378.75" y="60" width="100" height="30" as="geometry" />
        </mxCell>
        <mxCell id="RDk7HfD7q96trYIxuWp2-4" value="d. 그룹 설정" style="text;html=1;align=center;verticalAlign=middle;resizable=0;points=[];autosize=1;strokeColor=none;fillColor=none;" parent="1" vertex="1">
          <mxGeometry x="567" y="50" width="90" height="30" as="geometry" />
        </mxCell>
        <mxCell id="RDk7HfD7q96trYIxuWp2-5" value="d. 기록화면" style="text;html=1;align=center;verticalAlign=middle;resizable=0;points=[];autosize=1;strokeColor=none;fillColor=none;" parent="1" vertex="1">
          <mxGeometry x="160" y="410" width="80" height="30" as="geometry" />
        </mxCell>
        <mxCell id="RDk7HfD7q96trYIxuWp2-7" value="&lt;span style=&quot;background-color: rgb(102, 0, 204);&quot;&gt;&lt;font style=&quot;font-size: 10px;&quot;&gt;입장대기&lt;/font&gt;&lt;/span&gt;" style="text;html=1;align=center;verticalAlign=middle;resizable=0;points=[];autosize=1;strokeColor=none;fillColor=none;" parent="1" vertex="1">
          <mxGeometry x="240" y="250" width="60" height="30" as="geometry" />
        </mxCell>
        <mxCell id="RDk7HfD7q96trYIxuWp2-9" style="edgeStyle=orthogonalEdgeStyle;rounded=0;orthogonalLoop=1;jettySize=auto;html=1;entryX=0.01;entryY=0.683;entryDx=0;entryDy=0;entryPerimeter=0;" parent="1" source="QEhOT1YJAH4faydGy3Kk-3" target="QEhOT1YJAH4faydGy3Kk-5" edge="1">
          <mxGeometry relative="1" as="geometry" />
        </mxCell>
        <mxCell id="RDk7HfD7q96trYIxuWp2-10" value="b-1. 팝업" style="text;html=1;align=center;verticalAlign=middle;resizable=0;points=[];autosize=1;strokeColor=none;fillColor=none;" parent="1" vertex="1">
          <mxGeometry x="175" y="34" width="70" height="30" as="geometry" />
        </mxCell>
        <mxCell id="wASeGj8pZwlfWlHSNjn5-1" style="edgeStyle=orthogonalEdgeStyle;rounded=0;orthogonalLoop=1;jettySize=auto;html=1;entryX=0.005;entryY=0.668;entryDx=0;entryDy=0;entryPerimeter=0;" edge="1" parent="1" source="RDk7HfD7q96trYIxuWp2-7" target="QEhOT1YJAH4faydGy3Kk-47">
          <mxGeometry relative="1" as="geometry" />
        </mxCell>
        <mxCell id="wASeGj8pZwlfWlHSNjn5-2" value="&lt;span style=&quot;background-color: rgb(102, 0, 204);&quot;&gt;&lt;font style=&quot;font-size: 10px;&quot;&gt;회원가입&lt;/font&gt;&lt;/span&gt;" style="text;html=1;align=center;verticalAlign=middle;resizable=0;points=[];autosize=1;strokeColor=none;fillColor=none;" vertex="1" parent="1">
          <mxGeometry x="70" y="320" width="60" height="30" as="geometry" />
        </mxCell>
        <mxCell id="wASeGj8pZwlfWlHSNjn5-3" value="" style="html=1;verticalLabelPosition=bottom;align=center;labelBackgroundColor=#ffffff;verticalAlign=top;strokeWidth=2;strokeColor=#0080F0;shadow=0;dashed=0;shape=mxgraph.ios7.icons.back;" vertex="1" parent="1">
          <mxGeometry x="390" y="113" width="8" height="6" as="geometry" />
        </mxCell>
        <mxCell id="wASeGj8pZwlfWlHSNjn5-4" style="edgeStyle=orthogonalEdgeStyle;rounded=0;orthogonalLoop=1;jettySize=auto;html=1;entryX=0.94;entryY=0;entryDx=0;entryDy=0;entryPerimeter=0;" edge="1" parent="1" source="wASeGj8pZwlfWlHSNjn5-3" target="QEhOT1YJAH4faydGy3Kk-5">
          <mxGeometry relative="1" as="geometry" />
        </mxCell>
        <mxCell id="wASeGj8pZwlfWlHSNjn5-5" value="&lt;span style=&quot;background-color: rgb(102, 0, 204);&quot;&gt;&lt;font style=&quot;font-size: 10px;&quot;&gt;그룹입장&lt;/font&gt;&lt;/span&gt;" style="text;html=1;align=center;verticalAlign=middle;resizable=0;points=[];autosize=1;strokeColor=none;fillColor=none;" vertex="1" parent="1">
          <mxGeometry x="240" y="270" width="60" height="30" as="geometry" />
        </mxCell>
        <mxCell id="wASeGj8pZwlfWlHSNjn5-7" value="" style="rounded=0;whiteSpace=wrap;html=1;fillColor=#006666;" vertex="1" parent="1">
          <mxGeometry x="260" y="30.5" width="85" height="70" as="geometry" />
        </mxCell>
        <mxCell id="wASeGj8pZwlfWlHSNjn5-8" value="&lt;font style=&quot;font-size: 10px;&quot;&gt;그룹 ID: G1&lt;/font&gt;" style="text;html=1;align=center;verticalAlign=middle;resizable=0;points=[];autosize=1;strokeColor=none;fillColor=none;" vertex="1" parent="1">
          <mxGeometry x="260" y="29.5" width="80" height="30" as="geometry" />
        </mxCell>
        <mxCell id="wASeGj8pZwlfWlHSNjn5-9" value="" style="shape=image;verticalLabelPosition=bottom;labelBackgroundColor=default;verticalAlign=top;aspect=fixed;imageAspect=0;image=data:image/png,iVBORw0KGgoAAAANSUhEUgAAAG8AAABzCAYAAACW0VyAAAAAAXNSR0IArs4c6QAAAARnQU1BAACxjwv8YQUAAAAJcEhZcwAADsMAAA7DAcdvqGQAACY1SURBVHhe7d1nrG1F2QfwRbWABQvSFEQQK4qgCCoiKCJFwYYtRmMsMTFADBr5wpvwgQ/wgaDGaAJBsOC1YwEF7NhBsffesQMCNl5/4/3fjONae6+9zj7CSc6TTPbea82aeer/eWZmnXs3+8c//nFTt05rkjbf+LlOa5DWjbeGad14a5jWjbeGad14a5jWjbeGaU0Yb7PNNtv4bZ1qGr3Ou+mmm0r75z//WT5XixhK22KLLTZe+ffcf//73zf+Wh3KnGMd5V9626ST1SK8bL755qX10WjjUd6NN97YXX/99d3f/va3VWOaAm9729t222yzTflu3r/85S/dNddcs7HH6tDWW2/d3e52tyuf8wzIga+77rrCFyOuBuFhq6226rbddtvCU58BRxkPs7///e+7q666qvvABz7Q/fa3v12VSKCIO97xjt0jH/nI7klPelJR5s9//vPuYx/7WPf2t7+9u81tbjPohSshitptt926I488stt7772L45inz0Fd+/Of/9y97W1v6z7/+c8Xp6pRYlm05ZZbdjvuuGN39NFHd/e///27O9zhDv8l+yjjUeqvfvWrosRXv/rV5bvoWzZRzPbbb1+UeOKJJ3Z3vvOdu29961vdhg0bute85jXFE8fC2iJkzAc84AHdS1/60u7ggw8uTsMgfcaji6uvvro7/fTTuw9/+MPFkVeDJ9F2j3vco3vZy17WPepRj+rucpe7/JeTjHZjgvz1r38tEfiHP/yhu/baa8tv11faOAIP/tOf/lTGBUeuI1FPYVGQiAdZf/zjH0v/G264YVMe1g+0u+5+20C+Pvp6Rl9RRB7PBAr1M677Pl3DYz2PvuHZZ1LJShud0gF+8ea3eftodOT98pe/7C655JLutNNO6379618XLN5pp526u971riUiphLGePJPf/rTwuwOO+zQHXPMMd0rXvGK4m0//OEPi4e/853vLLBJ0fryePOCFnzc+ta3Lor+3e9+1/3gBz/ohfW73/3upT/eKeU3v/lN97Of/awYZ4899uie8YxndPvtt193+9vffpOXUygjigKyigjyn3rqqd3FF19c+NDfffyuBNY5AF384he/KDztvvvu3ctf/vLuMY95TEGkNvK23Pi5MO26667d4x//+O4Rj3hEgbepRIkf//jHSy4FkS0F9/fff//y+0tf+lIx5Kc+9amSHw844IDu8MMPL/0I/ulPf7o7//zzewschsEzpbh/6aWXdu973/uKon7yk590r3/967s3velNJd8k0jmXKDv++OO7Jz7xicUBalJc3fve9y736GIljsyZ8C9IvvnNb268OkyT3YT3UhjG73Of+0xue+21V4k2kdNHrt/tbncrfc3FaXg65fLy7bbbrrvnPe9Z7ik6Znm/yLnXve5VCoD73ve+myIJ8XpRzetFNmNqIlN0gUeO1pK5FDiinyytfIu0Pffcs8g6pIuWJhtPCN/qVrcqjGuUwEsJCL5mNZDmeTDIc4dKYcRIvNkc+iomQMguu+zS7bzzzqUKyz1Cz/J884JAkeYTD8YQiRwRP4zonnHudKc7Fcdyz/hDPBrH3PoYw29z9clet+Qz8kcG8w7N09Jk2KwJAwoZsCc3En6I5BBeKsdQ3BjyTD5B5YMe9KAisOjnsT7HVHzy5yc/+cnyGXroQx/aPfCBDyyQ+41vfKPkS/zjzXXRST5RZZ555FmR+/3vf7/kxll8MTTnMLZ5FqWlGQ+8vPe97+0+97nPlcKjjyhf36zjQFxgax55lkcy/GMf+9ju4Q9/+KbIF31j6Morr+y+973vFaVxgqOOOqoUA6D3Rz/6USnMKFz0iUa5lnMgcAau5xHjffWrX+3e8573dFdccUXheciAIlsuJ8OUumEybLakvBZ1vJr39jX3fvzjH5d1onKYIccQw1EsIqiiQc6i4OSIMZHHqSz6GVDznBwqX8qblEkOkMdQ7okKOVJkcJYxpMAhI1ln6cN9zmLOoMsitDTjmRzW8zRGmdfGMis3gDTKjvEJ/t3vfndTy3WKQOBun332KVFTw5E5Mz8DgXoQ53nPMuZDHvKQbt999y2GVKhkLn37CpY+ooMxeojOOMUY52tpacZDsyBiKqnywN1b3vKW7q1vfWtpF1xwwX801ywfPvOZz5QIfcITntA99alP7Q499NBSXfYRQ3z5y18uS5R3v/vdZQ7QZXfnaU97WoFn24G2wd785jcXCMTLGKKDRfQQVFmUlmq81SAKk0MYxzYZZdrnfNe73rWp5TfjcSBbXNZ+Bx54YIG+PpLXrBkttOVq31Wxnj3iiCNKIWFe45r761//+mjjLUIiEC83K2yuFokQkAXaaqhMU2iAPrAJXhUjciKjiZ66mFGGu68kB1UW6slNIFLh4jm5VB/XzGFu21Wg9pZEt3jjzaKs0ywdVLB2UOS4rLNaONJXLtS3bQ9+8IOLocHdlCi4OWjNGo+BVISKEltTz3rWs0rp73QgVWFrBJUjOH3mM5/ZPec5z/mPBipFnKXLsvP2atFSjQe7pybfRYlhNLsfokZ+UyXaIGa8vp0KfZ3X2Q9tI0+VKedltydtCqWanEeRYSotzXiUZevKwluyl2/6mnsWyFPLY8/JTcYBkRRuracp7ylcLpOjbIOJ0PCTfprnRK4caEzPWZYoSnLkNcURyWQ8Ms7TQ3iguym6WMoOi4kZzvqK59plsDPfEi+Ti2zAMjLFLkoMZ4FuE5riU1zw9GwUKGAslBUw+DrkkEOKgiwbPIMPhtJPweK5lr7zne9Mqi7JJMKhAMPUJxQ10YMNBxsEeLzZjMdreRMl2e6ZBwX2CLNjsah3qyRtjzl+oShFhogzDmNZr33oQx8qUQdC5UB8mcucOXUQmZYHjpY815KdGCcMi5J55FY8id5ZlP3ZWSchs2gpsMlrMCEaRMX97ne/mc1WlAjqi855ZB5GMQ4lOV3gwcbiNMr7L3zhC2XNR/kW3qpR/TmYvviNsS3UnaG1zRKh70xwHuGDbGSsZe5rEAj/ZJoSeZONB2oIb/vI1pW1EsiyzTSvUar+dt41CjfemCRPObaxGAEEgmjjWYv5NI4Ik1PcD3w66MxrBYys+a4/eNRPf8/KiSIa1M6jQDC5Ig/Z8NLK3TaQLcL1p0NrVm8CkGkMTYZNSf1rX/taUTjPmUoiwO6F8cYuginMvIR0YIoPC3nX3LMtZiywREFgFFlWaCAtxEAcgrGsE6GHayIPrFLsLFJhc76vfOUrhZ8peTwk0h1Ljc21k43Hk7369u1vf3sS/IUoW26g5Gz8ujaP9NFfxF100UXFiKJNzrXFJTopHgR6zYJSHfGILJVgTcZiUHnU+R5ndO6X3ZdZJOoch8mdIHgK/IU4XKpdNE8PC8GmwQJtvETIe9eC509too4BwBYy/pi9Pvd5Oj5AFcWBHkayxSXnMJQ+vNlcic66OFDYcALRpnBQvWpyZR1FiWrks+YR72QgSyvfIo0u6TS5tp6zj0aHDOEoQwkMJsZC3CKEWRFA+fPyDQ8Hi6JIua2/dRNjgTxVn7yjj4IFMRolMxajkQGMMpplhEJD/xhS8WU8/WytWZKY19gMbGmkap1SKc4jaCb34gNPfRE96tU/1gdt4MExydQF7Dwyj6KBIu14+M6bHcmcddZZpc/jHve47oUvfGHZzqJYSZ7Xcig8iQKeayzKtoYivHv64x3UZZlhDoqiJIeuHIdxGFnEigTPglNOYu2myFHR6mOslUDlEOEPfNODihSf7Tyj/1aBALXHrhZhmvJUkzyaYfqM59yNgShSwxdFyz2OcfwmuP1O22EMJ//Jj4oLirHHKUfKlQxNQYkuRjGu55D+7uMPQnAC9+hlNQgP5sIPffRF9+h4NxDm5YJsL4FRHuvaIs0z9bZWPQ4YjOHmEQHx5BmNgl1L+S0CCe6esRUxYC5lub6iz/zg2liMIZ+BTs+FR0rkLNm/zby1XGMaOc1Xy1+36AI/xjfPkC5GR15LvDLrJ166CEUphMEYyDMOb0augy9wNhR5YBMCMAY4t4ZTpUn6IgxP4FeOltf0BXXvf//7y6k4Hk4++eQynl0b0YSP7IlSnkU92MWjOazNUlhNoUCh7bN2HWkOkWyO6NTcUEFf0N/S5BrfYlIJrqRmyLHEc+WWRz/60UWxIkNeM5YFv+iQX7yKgPkhEgUE9KzX4SlXfwZ7wQteUBSDR5XoZZddVhxB6a9fSwxrg8Ef0ljbcQJwykHsglDsZz/72eIUlDuVRJHCx/aeYqc2HoIUIB30Qw7OgwcnIYqpNgInG4/BbN5SzCI5kPGQPUfermWbSjGkIBAVWfP1EbhDnuWlIsl6U7SKMk7Bw0WtcT/xiU8U4+GzdrTkFZ+ug1MGtNbi7Y6KQpRpXTtv3TeLOJdtMQfCeIkcITJzDnzThW1AGweuc9aWRue8lkxMeQZum4gAgTwfFPFkv93DRJTI08Cd/ozq+rwCQD+wlsWs7+DGdWODFzlTRPvumr54MSdvZxhOgn/P4w0vGtjEkzHdrwlvZHAvY5KvbYHe6MJ41pj4xYNx8aXh2/zGy9xprs/Sx2TjUYK1zkEHHVQ8qW6iSnlLgYws2csr1lvuS9aE/OIXv1jyEEZzn2daYIuUPiKgKPNyrxMEv/VXUYo4OUI0EbpVvkJAuY8HsBXYNRZPB53k8rxW8wDCwL2DX/LJiS3sIdAG4rwRrtolj/wuHbTEcBxAngbLdAHmORFqYbKlybAp6R577LEl4bfewcvkhw0bNhRohfNex/OnW4oR66ePfOQj5bU9yj/ssMNK6c8ZRA140VpYQQSVu7yuBxpB27Of/ewCmZ51zbMUwwA1eTs68yg8Lr/88lIMWcz7TZGJOChgjJC/LnJaL5o43mtf+9qSp32viWPanrNE4Ywq3wsvvLD85Y/0UJPoJI+31+y/kle0ceYxNDryDFw3UcX7RIzN3DQ4zUsZibfxHvDFGxlcf8rl9YwA4ylMiSyC3NeX15unJX0pITv4YEhEeU7UgcPksZbAJd4YGi9ItCmUfFImRwRnibyMIw9zwsgXVGnJM3gQbXjyjN8tkniWk9ADBzC/Yorjc5AxNNp4vJBH8FJrJE3ytiHskxEoEmGsFowXw3TM6W8ckMNgFM64ItDYGS9zEMxYFEZxGoVQPgVxBM9TDkfpU2jIvRglhmEoSvQsh4vCjWluPHAS/OvneYbjMHjAFzlUkpnbp/H0zXqQnPpCB9ElIjW60Me85OFgxh9Do2CTgAxjO0ie4R2uRXifokZJi8EIEWIYuQXxQs9QFBhjWNfkHH3cq0kkEMYbYq33ui53eT5zhp+xFMODWzkTenhensaTF28RyJS/GIKyVYGeVYQwMt7ppyYGZCx5lvNDDE7L0cEoXjkEJOAMch0UkNNB+DwaZTwT8Dxl95lnnlkiow5tQshnBAalmK5JRGneTkbO22xNWe8wgFfOzz777DJ+ojekSDjuuOO6V77ylUUBrXEpIwZA7f2xJIqe8pSnlHzFQNaOeProRz9a7p900klFwSCd8eQ0uRrsWZude+655Z2YmjgB43FS61qwrAaQ620WkMd8z3/+84szMC4dSQ1jjDe52hyieNM8YmBKZzxCUn5r9BD4kT81iqtbKj4R2hZOi5C5jZ+9xDbKEbnMgd+ap76+KP3wqJ9xyew6Mqfm+Yyl/1ja4pRTTvm/jd8HiUF4A7iUWEEMbHZdpGDA0gD2YwyU6MeTKDh5ieBgEsSqxOxeuJ6+hDCGKEgzLigGjeCpr3lWgw7mpyy8hQ9wZCzlezYALO4hCP7xhxewKadSMmhTUCHPel9GP/3Nlbn1cQQFNYwXmIQY8hg+8KSJNDoExyIQH8md7otclbg/UjWHKAfX9GXc1rkXOhIyOIhQVlOKl3ysTzCh/LY1hRmKZgQTUiRG7BpY1/kOQryl7O1ljqAgCMNt9MRp3JtFPFZR4I8uQRADeIaStJT+4Mh4+itMzI9HJT6FZ33KEPIYuEd5roV14zKikl+xxRCWI09/+tOL4oNCjENveHnjG99Y/iEDtQDHtCtEXyDYGPKeueh0xf8ahIkJyXN5EzIBj+ZxJrW1pCEMWQOalNeoqkyM8RbLeRMmKbI2nDmRZ/wV0DnnnFN+DxHIoQSOwwgiXvUmB4soPPrXH+QyW2CQwz8XYp3IYJ6HAvg0d6o/xkH+ER9bgX3/YsUQcfpEXh9xhCx5WsLLPBqd8zAA1oLbPnksYfua/vrIIRQZxWgMRijGErUU5HrG1V/UchjXjJVn22asKCdjijAe776xGFTLeOTQ8O93roUfzXdjh6fwHPLb+J6r+dHwY35yabNqgMiWcWp55tGonIeymLTusV4DoXIKj1Veg8y0/Cmw1wh4OGWCXUoBbaJM7qEgOQMEp5lDf/mFIKIbhOgrL9XziGr9srgG2ZYr8imnqRVB8WCUHObOQt19ctR8pDquf9uNUcJblzEoGc3jMylDE7EgTh98GRslD0Oe5Dxyim66wje90Gcceik5j+dQoJzljxt9N5FJMc6ja+/CuHUc+OT5FEZxFIQpDiCfgN72fMxzGPavEYkWRo8ya+bN51nrzne84x0FminSXwtZhhA8xtP0V6TgAf+eZQzPU/A8b8ezIoZB8PXc5z63QK55OE5IjpY+5Hg8c5D8Awj61jkPbOa03xqS46ojbLvpt5Scx2MYgBfyQEI475JLbNQamHICKxRBcZlMFPBIxgw82fu0EWusmvQxHu9DHCMRV5MxVJea8fsIP+EJKQo4B4/nTPKXAqwv58wickEb8kf2EH7IxNgMoU5QfdrMZnTOGxKNeKJDRuRYnuVQY2hUzosxYD/hMZylgshI481pvIqC9SEcY3AA/QJzlGBs0ckrjQv6AnnIJ4OL5r42ROalKPOJLM28yHgUZ17zpbAx71AEgq3ITuHGJ2crO5gnm/76ZtPCPTyoMEUnnZiLDlI75HMsjV7nUT6DYEQUiBD4jCkeIw+mCX+KowyKojQQAiZ5ubKa1yuLjcuLlfc5QgF/PmMc89ct1yjBGsshKShkCNtlmmflJ3OYD6xSam1090WDtR2DIOPUkRQyphN+x0mQgGycUaQYO7L7Lq8xBD1JL+YgJ9i2hSZlWIowlNxrbBUvPYFL96HcvJw3CjY9JNIkaMwQjjEc6zhSARU1KUqsdRwDYQ5EwXFHHwod3snomGVcJf6Tn/zk8ikaFCGzogAlmoeIoSjTnPI0srb01jTnoAx5iJPghVM5uiGX6KjhDTGaVxI4GnktX+TaFCQhTvCwhz2snHOSh8HoyVtroBRkm08TySuhUbCJKJkBMS+RghoKYgxM1c01TGOQghmJN/JKHidSAy8MxFjG4xgSPE9lHIJSYh0JIs414/pMJIYSkZo5OE74ggiiRR9ebx6OxutBHD7I2ec0ZNdPFOARCjF0LbcmYvAtanICgvABBdwX8WRfKY02HoFEYGAHLLjWBzGUmiMeAoEWfUWhxK0sTlOxUiJvZlwCeiaLV45grCiUIzA+CBZZlEhJxvFJKRzEffMzYB/pZ1zKNI4IEu0gEY+cVLEUSk4iO3RgQFFLBkUJ44ZHn/pzhNoZfCersc1hKcW481BmiEbBZk2tp/cR76Z4lal8g2nC2BbzvSbjiVD9lO4tgRaGkc84ighWjckNBPa8VyA4lu+83htt+vJ2hgnhQT/3RKb55EyGY0xzgXp95B0VsWIkFNkZT/6DFu5zMH3JUJP+xs1zCj61gvwugkWnaDavORelhY03hkSRMtlah4JhP6XIGaovSgxRolcAHJHoXysL8U6vAcojlE5R/lEbOYTgGdd3UG3ryz94yiD6t7kLuS4ivebndQqRKnrkRPOIInwqLjhhTeQRKRxGDcDxsqbjULNI5DK4ZZZ55MfsKE2JvNHmjhfJNZroopghj9GfYIzBQAwmp/C2tqVqZXT965a8GTInPnyCUIYARZStCBHZxpFXPA9W+wh/gXfRbCxKFAV4ylihOEJyLZ7NmWVTiyg1BXkQIzEYXYBl47i/asYjaMpii1o7LXYReKC/aeP9fc1hpcbTLNL1532YTZND5A/LBDsJqjTVIKdgJErTIpytLaW1A13/6rmIYTwKSUHlnl0N8JSCoY/IFaWay5z468vnZHdcQ3bbW5YU+sQwfcp3DV9kV9mSDb8cEmSLWNHtN14WpVGwaWAebCI78yCJZ8pDjnV4EUGHGHCfALyMQOnnO8Hhv7fQRIyKkIIULvJXTZQLdmxLqXg5g2qRQSmR8RQR5gGLiha5CNQuSnisjcdw+DGXCOWcdID/ul9N+MWjnC1KoUEqYMbjuBxVLUBHi9Jo44k8CnVMTxnWPdZysJ9CCVYbpSaK5YGUWpP+BBQd4Ir3q/4Y0TMtGZfDUJpcGK+nTN/BEKMaDwyCPzzPIpDeOgm+IktIMcIZ4iS2vLJeHCL8Mp6++ALjcijDeYeF0RlTxaoSX5RG5zwTMSC4MCHcpzTK5FWSL/zP9hGDpjEMIRmqJUoCU3U+1Ld1gBDl6WteUeB7DB1Dup7c5fei1Gc8yCM/QgbI4zdnm0VBFvLgKfwmX9OlfGusdr4xNCryasokhID9DCLn1AQOGJG3uUe5Q8y5rpy3thNxIMW4iQZQw+tVo4TOOOY1D9iU5yglzjFk+FAiQhXsBIICjSXqRQR+5Tg5E+Rxrpo4hHXarKirKTwzpKg1LpRgfOtKMvQ59jxa2HghC2p/wAECauEoGIOKCYYLpPURJeoPjsAxSBHVHAOcId7pVQvXak+nCOPb+/OZBTVFDRnP8xCEohiPAUAsOLPw5zT+QofDgGXlvPut8cijyJIKWsgdInx5DmIYF+Tiha44+hTjLfQEBpKcRUk2hS3G0wjvqEckpZSfRe4zjIW3xbViRWHEqEgl5jdHaefxyeB1tTYr6sylURTFWzBTIiP6zmiRR+QxkHyUze40hmWEVKW14vM7fPjMd9dFqwLNnMbKTk76LEKjjZd8IpfIY0KdALy+bu5rYMgz85hyXz/KJJgxeGM9h3k5giZ69CWwT94c5bmXXKL5TsEZC7TWCsejCFRImSOfcrh86Z5nAo/WePKTBiHkPnmQ0bMW5URqA84Njt33m9O08xrXfOSfQqNP0kGLCLBzgtF4eh9hSPVkByIe2tefMBRuK0opLgITcSFwZidEVCKVm3Vjqk2e61A0pbhI9JYzHkFaeKUwywhNlHmWXMicIs3LVEEMucja034phVtyQBpGq8kcKlr3ycCp8KYadyTkdyKMUw6ROezSOGF3CuJvDtUMs07SR/9ZMyYJRcEReogoBtO8ltISGX1EsZSuyXOtkSmMQOedd175bVPAa3XWRsY1D6VwBHkYnDqm4myKDW8kO6nmQKIaT7y+JnOaW7R4jkPplzWded7whjeUvKy4qpVIF2Cbk9GPe/hJ1Wx961V9a1Pfh3QxxXijYTMGsYfIG2c1SZ7gFIYIONQojjJBG+HaseQdSg+BNoK4l03drB9FGZiy+2OfEXRSIBTQ9AW1mTtEccZw35j6Qgx9ER4Z1vqWMxk7zVwMmrwritNXIcahwGscs5Y9zfUpNPqlW5HHKwNtsyacygxKhFgrchjK8rcM3u8XXaLJP8Eomngih6L0RB54TeSp6vwNhcqXgUCePETRxvZc0IHh3UvkUSoyLvK3CB/84AcLrNaEBw4CtvHtOcZLrlOc2IUSebMW4vijW4fWIhwELwU2MYQZywLKwdxKDDREgSsVHoYZhkBemZDHMM+D8aJo0Fe1aN+QsSmet1sXMoaodV++wS+FqCblbs96Tn4Cc+axJBFN4C/GC/nrWXyYuyawykB2mlSQDCaHm0f+BZ/mYAhoNIvMi3/zWO8uxXiUCtP9xYw3hx298Mgh/J5KmCegt61POOGEEhmUKOrTLCW8OufVAhBn49tC24IbP+mH8CjCElnelvafazCSsV/0ohdtUgxFi26L9HrpEQJ9DNNeF22KE3+d6xU+Mjjikrcsb/DAUcAyXmYRvs3NMSHQ0nIepsGlwkLkgRjeuswG1kRWrTwME1wUaoRi0JTjdZHDeCnDNVHhd0g/z8mF5qvh35iUpurk9S1v9TwtMYr58OkTz4lcz5CH8dsx2zbkIEO00A6LQQms8SYlN6yvFbQIJZ/YltJShud6yG+NUnIPL8lNtbDuM6LrjKuCMzavdpzFMPj3O8/pL4IsQxzbMOKQAl2nYNDLgVHmTLOmlJNT8ITwa2w84cM4K6HJ22MMZ2sKk3LGkLCzKEq2RgIxhImRxpIxYtCQ38YVRdal4D7Qr6hpSeSAJfKAqqwN+8i4IiT/vlnbjyM7s/NpPVqT6OVI6gb5+WYznpxhEa6S4mmEWoQITcmigLLyLuMQxUA+Nc+bs47GmtwTeQ48verQR3mOA8i1ctc8Mq6cbx2msGijFHQqkPoqS8iimLKMyJ9Lr4RWVHEQmtfmc5Emd/mcRzEWYijP+WR0uWRWlIyh8DFGhjiK+cyfTxFVO68+feOZq4XSldDkyAthFOPgyJoMNIEDzLYUYS3GbT+pFmeRcRUXKkGRaUwFk+f8QYniwNaYqImBxxKjq1zxKm8bO/wh5b+tNEsQY8doPq3rrNt8ep4s+tdwH72AVssPW2jglsOpF/y7LoxeEyilR33JOY9WbDyESQnYKxL2ITHI8/pI7vHaHMpCfIgogPGcUmzYsKEoh6LkEv9tKU+meK2OijHEeFm7iQbPIvwhGwF2WaSH8KgPuTiNwsaGgf6KHTVAZM5Y9AIq6UROl4OlmLzPonquiQ6daOBtjPGWtlBjMJHnaIeyKaav8Xa4rzSOlw8RJfBOOcJzno8CLIodaiowREAUhhiQ4mYZ0tx2S5zhWVDX/GmqSTK1ZB7FiE1nOzj4YESL8ZoHZH78iyY5zsa3SpPTyq+eTVMscWrjiswxtDTjId4/FHE1je0X6lOKxuvBFu8WoRpoyjoODJmLYusGZlXIWZMhnyLBPU3hIQIyXt36rvU1uzGJIA6W+bO0ioPNcrJZtBTYDI0tQpZBySfyoWhXAQbyEIVwEND34he/eOPVf5N+noUAooGi9RMBchflMqaSPrskUwgP+MSHt+PAsy070WUDYeq4oaVqeqXMLEKUIurAm2MU+66tBzuP84abHFlHOsi0wPZeDEgToXKbPOTISZRYe/qroZWU9JxZcaU4AYlOWxhQjlxG1blU2PxfESMxgF0SipdH5C/rxLrJWRTl+MjaK80ajFJBGCUyLMQAl46mFB8MKDoZeV6Th+t5OYRr0MBa0/gZm5OA5DhTLYvGKcfSmjMeYzk/U36DTEpqS+4QBSWnzSNRbFwRrMmjlO2kYFZTrCiaOAnkEW0MZJfFPU4idzKqyhZSyIUMxWhyoqUBCFfwkQcvY2ipsNnC1moQr/bHJCKNUnzKWbOIUgPpLY9+a8ZQphtfzlO8eH0hy5ohYgDKlx+tRT3nGMr6U26zA6PAcU7HmVTKKkv7qIhRVec5ivLbkmEMLdV4Cf3VJMoFRyKK0hUfK5mTcjkB43EK4zK0453nPe95paSn9KF8LuoVTAwoshjP8ZSjKjkXpG/41xqV8WxgiFawrTBieM5nXv9ADznI4/oYxFgqbKqgUoYPNcLB/LFw1lKWB/IZxRvHuqidJyU55YJazXN1RerZ9M2ZG9hjTGQpocl/+a6RUz/5iaKNWUc0Y8ul+hkTGTPzp7/55do4hzH1p6PMM0tPS4k8E1MCmMEMRQ0RxnmfXfyVLCsITDgVnLxCYNdCeHIPBFmEM6QcplSnGEoSAVkeMEKIweWrdkxE6Qwh31pLyo3eYxG5jOl+Wkt4iqEQY1mi0Jv5PeOeT/1ALD3hPc/UtBTjmYhSsmUUzx0iCd3+Ju+sI2ER4pGMYLvMG2IMWHspBagEwZmdE45iP9KygdE8S2mUxwBtlUdxdkL6jCfi86pfFux2gdoxKLxP6ch18uPbm3D2UWuDmxePiiFOulTjmUiLtzGItijB+ZrpWVQr0neeK2o4jfdEauOJHgtw+4pefUCUpQrkOBSioNBmUcub34zHIezlir6aYrDoBp+5FgO4p+EHOmjtvVB9vaXJOU/EEILXrqSBWIpuvTZE+OQF0JyNaN95Jj6Mw/uV4BlXCW6NhccQaJIr3Uu/RZrxMw/Fg9XwlLyJJwqX3zxDPr85i9xJFvIaA3/uB7J9qjhdF9Ge13cInUa/gOQE2Ms5p512WlmL8GD5IifpU0nk2Qj2sqw3pyjB63r+OUWQplpTSqvIWuxnUMoCcRQp8nKfIqypwFv+qWEnBcp0C/Up+Zb3czKGUSVyDNfMmYjBY/YxGVVf+mIsemR0cKywY2w5zbKBrBwrC30ORiaIIlfHKWqabDwDU5pJwddUogxFRd5hIZg3jF/1qleVsbPL0a59POdeXudr71Ok8epXH8ATnimtVcQipNjxLqicyQjmCokU78pYPtATx/bGASPoi0/OakGOvOZIXrWCqObEHJUjM5q3wy1XOANnrWmhV/+sRc4444zCFM9eiQL6iEF4ojWWfxCc8YbmMD9okXde97rXFSP+r4giIQOlc4YYD68gz56pF38hhpzq4NifQSvqGM09LxKLXMXKS17yknK8ZP1qn9a60FGVYuX4448vBRm9tMuG0f/2mIkYTYkMcmwH8aRlNnDDYLzRzsZQleWaxqmyr+l735ir0aAD+JU68BwSGSIPT6pchgTRUgsj6usaOFfoBBbzrwdCElt0kAKEKsacWapIPTsp8kQECILFqjeT1FCxLDImbKcUuxN9OB/SVz7hTF4yAjn/KwKbIiUHwdEF5eLJVpetMnDPQJYBMZ5rOZT1HCgHqzbD6Vhkep48nmU81fFk45kETIk+gzJmGF42iWpM8/AWJloSbTyUN89bWy6T8KUYodCax6CBClLBIQrdl/f0JRs+8UuX+kMXOdgnHZOHEfVjLMsv94zTOvIo44UYDHOrTZhuvWyI8LSazjREs3hsedKP4qN897Rcq++1z/YZLbSQ8dbplkXj3HudbpG0brw1TOvGW8O0brw1TOvGW8O0brw1TOvGW8O0brw1S133/9kupYoKPjRVAAAAAElFTkSuQmCC;" vertex="1" parent="1">
          <mxGeometry x="285.52" y="59.5" width="28.96" height="30" as="geometry" />
        </mxCell>
        <mxCell id="wASeGj8pZwlfWlHSNjn5-10" value="c-1. 팝업" style="text;html=1;align=center;verticalAlign=middle;resizable=0;points=[];autosize=1;strokeColor=none;fillColor=none;" vertex="1" parent="1">
          <mxGeometry x="260" y="0.5" width="70" height="30" as="geometry" />
        </mxCell>
        <mxCell id="wASeGj8pZwlfWlHSNjn5-11" value="" style="verticalLabelPosition=bottom;html=1;verticalAlign=top;align=center;strokeColor=none;fillColor=#00BEF2;shape=mxgraph.azure.user;" vertex="1" parent="1">
          <mxGeometry x="457" y="130" width="15" height="17" as="geometry" />
        </mxCell>
        <mxCell id="wASeGj8pZwlfWlHSNjn5-13" style="edgeStyle=orthogonalEdgeStyle;rounded=0;orthogonalLoop=1;jettySize=auto;html=1;entryX=1.002;entryY=0.803;entryDx=0;entryDy=0;entryPerimeter=0;" edge="1" parent="1" source="wASeGj8pZwlfWlHSNjn5-11" target="wASeGj8pZwlfWlHSNjn5-8">
          <mxGeometry relative="1" as="geometry">
            <Array as="points">
              <mxPoint x="510" y="138" />
              <mxPoint x="510" y="54" />
            </Array>
          </mxGeometry>
        </mxCell>
        <mxCell id="wASeGj8pZwlfWlHSNjn5-14" value="" style="rounded=0;whiteSpace=wrap;html=1;fillColor=#006666;" vertex="1" parent="1">
          <mxGeometry x="45" y="70" width="85" height="70" as="geometry" />
        </mxCell>
        <mxCell id="wASeGj8pZwlfWlHSNjn5-15" value="&lt;span style=&quot;font-size: 10px;&quot;&gt;입장됨&lt;/span&gt;" style="text;html=1;align=center;verticalAlign=middle;resizable=0;points=[];autosize=1;strokeColor=none;fillColor=none;" vertex="1" parent="1">
          <mxGeometry x="60" y="69" width="50" height="30" as="geometry" />
        </mxCell>
        <mxCell id="wASeGj8pZwlfWlHSNjn5-17" value="b-2. 팝업2" style="text;html=1;align=center;verticalAlign=middle;resizable=0;points=[];autosize=1;strokeColor=none;fillColor=none;" vertex="1" parent="1">
          <mxGeometry x="50" y="40" width="80" height="30" as="geometry" />
        </mxCell>
        <mxCell id="wASeGj8pZwlfWlHSNjn5-18" value="&lt;div style=&quot;text-align: center;&quot;&gt;&lt;span style=&quot;font-size: 10px; background-color: rgb(102, 0, 204);&quot;&gt;나가기&lt;/span&gt;&lt;/div&gt;" style="text;whiteSpace=wrap;html=1;" vertex="1" parent="1">
          <mxGeometry x="67.5" y="108" width="45" height="20" as="geometry" />
        </mxCell>
        <mxCell id="wASeGj8pZwlfWlHSNjn5-20" style="edgeStyle=orthogonalEdgeStyle;rounded=0;orthogonalLoop=1;jettySize=auto;html=1;exitX=0.5;exitY=1;exitDx=0;exitDy=0;entryX=-0.003;entryY=0.284;entryDx=0;entryDy=0;entryPerimeter=0;" edge="1" parent="1" source="wASeGj8pZwlfWlHSNjn5-14" target="QEhOT1YJAH4faydGy3Kk-5">
          <mxGeometry relative="1" as="geometry">
            <Array as="points">
              <mxPoint x="88" y="160" />
              <mxPoint x="170" y="160" />
              <mxPoint x="170" y="244" />
            </Array>
          </mxGeometry>
        </mxCell>
        <mxCell id="wASeGj8pZwlfWlHSNjn5-21" style="edgeStyle=orthogonalEdgeStyle;rounded=0;orthogonalLoop=1;jettySize=auto;html=1;entryX=0.25;entryY=1;entryDx=0;entryDy=0;" edge="1" parent="1" source="RDk7HfD7q96trYIxuWp2-7" target="RDk7HfD7q96trYIxuWp2-6">
          <mxGeometry relative="1" as="geometry">
            <mxPoint x="200" y="140" as="targetPoint" />
            <Array as="points">
              <mxPoint x="186" y="265" />
            </Array>
          </mxGeometry>
        </mxCell>
        <mxCell id="wASeGj8pZwlfWlHSNjn5-22" style="edgeStyle=orthogonalEdgeStyle;rounded=0;orthogonalLoop=1;jettySize=auto;html=1;exitX=0;exitY=0.5;exitDx=0;exitDy=0;entryX=1.008;entryY=0.416;entryDx=0;entryDy=0;entryPerimeter=0;" edge="1" parent="1" source="RDk7HfD7q96trYIxuWp2-6" target="wASeGj8pZwlfWlHSNjn5-14">
          <mxGeometry relative="1" as="geometry" />
        </mxCell>
        <mxCell id="wASeGj8pZwlfWlHSNjn5-25" style="edgeStyle=orthogonalEdgeStyle;rounded=0;orthogonalLoop=1;jettySize=auto;html=1;exitX=0;exitY=0.5;exitDx=0;exitDy=0;entryX=0.015;entryY=0.224;entryDx=0;entryDy=0;entryPerimeter=0;" edge="1" parent="1" source="wASeGj8pZwlfWlHSNjn5-14" target="QEhOT1YJAH4faydGy3Kk-47">
          <mxGeometry relative="1" as="geometry">
            <Array as="points">
              <mxPoint x="25" y="105" />
              <mxPoint x="25" y="403" />
              <mxPoint x="400" y="403" />
            </Array>
          </mxGeometry>
        </mxCell>
        <mxCell id="wASeGj8pZwlfWlHSNjn5-27" value="&lt;font style=&quot;font-size: 10px;&quot;&gt;그룹 ID: G1&lt;/font&gt;" style="text;html=1;align=center;verticalAlign=middle;resizable=0;points=[];autosize=1;strokeColor=none;fillColor=none;" vertex="1" parent="1">
          <mxGeometry x="45" y="84" width="80" height="30" as="geometry" />
        </mxCell>
      </root>
    </mxGraphModel>
  </diagram>
</mxfile>
